<?xml version="1.0" standalone="no"?>
<!DOCTYPE svg PUBLIC "-//W3C//DTD SVG 20010904//EN"
 "http://www.w3.org/TR/2001/REC-SVG-20010904/DTD/svg10.dtd">
<svg version="1.0" xmlns="http://www.w3.org/2000/svg"
 width="600.000000pt" height="600.000000pt" viewBox="0 0 600.000000 600.000000"
 preserveAspectRatio="xMidYMid meet">
<metadata>
Created by potrace 1.16, written by Peter Selinger 2001-2019
</metadata>
<g transform="translate(0.000000,600.000000) scale(0.100000,-0.100000)"
fill="#000000" stroke="none">
<path d="M2551 3904 c-28 -31 -58 -69 -67 -85 -10 -21 -22 -29 -42 -29 -37 -1
-131 -40 -177 -76 -42 -32 -115 -136 -115 -165 0 -31 240 -112 264 -89 15 14
19 110 8 170 -10 53 -5 69 20 70 13 0 30 -114 26 -183 l-3 -71 52 -10 c47 -10
55 -16 97 -72 69 -92 65 -91 126 -29 46 46 51 56 40 70 -7 8 -11 17 -9 20 3 2
38 11 78 19 l74 16 34 -30 c18 -16 46 -36 62 -44 27 -15 29 -14 76 34 l48 49
-24 19 -23 20 68 21 c37 12 83 21 100 21 18 0 113 -20 210 -45 98 -25 187 -45
198 -45 16 0 4 18 -55 83 l-76 83 77 78 77 78 -55 -5 c-30 -3 -109 -22 -175
-43 -135 -42 -197 -46 -288 -19 -54 16 -57 18 -43 34 14 16 12 21 -34 66 l-49
48 -62 -47 c-35 -25 -70 -44 -78 -42 -9 3 -43 8 -76 12 -59 7 -62 9 -146 91
l-86 84 -52 -57z"/>
<path d="M2237 3074 c-4 -4 -7 -44 -7 -88 l0 -81 105 -105 105 -105 -2 190 -3
190 -95 3 c-53 1 -99 0 -103 -4z"/>
<path d="M2660 2777 l0 -302 105 -105 105 -105 0 408 0 407 -105 0 -105 0 0
-303z"/>
<path d="M3090 2673 l0 -408 105 105 105 105 -2 300 -3 300 -102 3 -103 3 0
-408z"/>
<path d="M3527 3074 c-4 -4 -7 -91 -7 -193 l0 -186 105 105 106 105 -3 85 -3
85 -95 3 c-53 1 -99 0 -103 -4z"/>
<path d="M782 1713 c-12 -43 -51 -176 -86 -295 l-64 -218 32 0 c32 0 33 1 57
88 l26 87 99 3 99 3 24 -91 23 -90 33 0 33 0 -24 88 c-14 48 -50 180 -81 295
l-57 207 -46 0 -47 0 -21 -77z m109 -136 l36 -132 -75 -3 c-41 -2 -76 -1 -79
2 -2 2 13 65 34 139 20 75 40 133 43 131 3 -3 21 -65 41 -137z"/>
<path d="M4827 1783 c-4 -3 -7 -51 -7 -105 l0 -99 -29 20 c-38 27 -103 28
-147 1 -53 -33 -79 -99 -79 -200 0 -69 5 -93 23 -128 44 -82 139 -108 202 -56
31 27 31 27 37 5 4 -15 13 -21 35 -21 23 0 29 4 24 16 -3 9 -6 141 -6 295 l0
279 -23 0 c-13 0 -27 -3 -30 -7z m-37 -232 c24 -17 25 -23 28 -138 l3 -121
-31 -26 c-60 -50 -131 -29 -159 47 -15 40 -14 151 3 190 31 73 93 92 156 48z"/>
<path d="M2120 1691 l0 -70 -32 -3 c-25 -2 -34 -8 -36 -25 -3 -18 2 -22 30
-25 l33 -3 5 -173 c6 -199 7 -202 92 -202 45 0 48 2 48 25 0 21 -4 24 -22 20
-13 -3 -32 1 -43 9 -18 13 -20 26 -20 168 l0 153 43 3 c37 3 42 6 42 28 0 22
-4 24 -45 24 l-45 0 0 70 c0 68 -1 70 -25 70 -24 0 -25 -2 -25 -69z"/>
<path d="M4160 1690 l0 -70 -30 0 c-25 0 -30 -4 -30 -25 0 -21 5 -25 30 -25
l30 0 0 -160 c0 -209 8 -226 106 -218 32 2 40 7 42 26 3 22 1 23 -26 17 -56
-12 -62 7 -62 181 l0 154 46 0 c41 0 45 2 42 23 -2 18 -10 23 -45 25 l-43 3 0
70 0 69 -30 0 -30 0 0 -70z"/>
<path d="M2857 1615 c-22 -7 -50 -23 -63 -36 l-24 -22 0 32 c0 29 -3 32 -27
29 l-28 -3 -3 -207 -2 -208 30 0 30 0 0 155 0 156 28 24 c15 14 44 30 66 37
37 11 40 11 62 -16 23 -26 24 -33 24 -192 l0 -164 30 0 30 0 0 159 c0 158 0
160 25 179 13 11 38 25 56 32 27 11 36 11 57 -1 36 -20 40 -42 41 -216 l1
-153 25 0 25 0 0 179 c0 177 0 180 -25 209 -42 50 -123 48 -184 -4 l-30 -25
-28 29 c-35 37 -67 45 -116 27z"/>
<path d="M1117 1613 c-4 -3 -7 -118 -7 -255 l0 -248 -30 -6 c-30 -7 -42 -35
-20 -49 17 -11 70 5 90 28 19 19 20 37 20 279 l0 258 -23 0 c-13 0 -27 -3 -30
-7z"/>
<path d="M1284 1605 c-11 -29 2 -339 15 -366 31 -64 132 -67 199 -6 l22 20 0
-26 c0 -23 4 -27 30 -27 l30 0 0 211 0 210 -27 -3 -28 -3 -3 -157 -3 -157 -37
-31 c-30 -25 -45 -30 -77 -28 -59 4 -65 23 -65 216 l0 162 -25 0 c-14 0 -28
-7 -31 -15z"/>
<path d="M1697 1613 c-4 -3 -7 -98 -7 -210 l0 -203 30 0 30 0 0 154 0 155 33
25 c50 39 84 48 115 33 l27 -12 3 -178 2 -177 30 0 30 0 0 181 0 181 -29 29
c-23 23 -38 29 -71 29 -43 0 -88 -18 -109 -44 -20 -24 -31 -19 -31 14 0 25 -4
30 -23 30 -13 0 -27 -3 -30 -7z"/>
<path d="M2375 1601 c-16 -10 -38 -27 -48 -39 -18 -19 -18 -20 4 -35 20 -15
23 -14 41 8 39 50 132 53 158 5 24 -45 10 -61 -70 -84 -126 -36 -169 -82 -157
-169 8 -61 51 -97 117 -97 41 0 55 5 83 30 42 36 47 37 47 5 0 -21 5 -25 28
-25 l28 0 -4 168 c-5 183 -12 211 -62 237 -41 21 -128 19 -165 -4z m173 -224
c2 -36 -2 -55 -18 -77 -40 -56 -114 -77 -152 -43 -25 22 -24 84 1 108 22 19
140 66 156 61 6 -1 11 -24 13 -49z"/>
<path d="M3413 1600 c-96 -58 -111 -282 -25 -362 39 -37 65 -48 112 -48 53 0
104 24 130 60 24 34 25 46 3 54 -11 5 -28 -5 -51 -29 -28 -28 -42 -35 -74 -35
-22 0 -48 5 -60 11 -24 13 -57 83 -58 122 l0 27 131 0 130 0 -7 48 c-17 118
-63 172 -147 172 -34 0 -63 -7 -84 -20z m106 -31 c34 -12 61 -53 61 -94 l0
-25 -95 0 c-106 0 -109 2 -78 67 14 29 33 45 79 63 1 0 15 -5 33 -11z"/>
<path d="M3740 1410 l0 -210 25 0 25 0 0 148 0 148 33 31 c29 29 74 53 98 53
5 0 21 -11 34 -25 25 -24 25 -27 25 -190 l0 -165 31 0 31 0 -4 181 -3 181 -33
29 c-24 22 -42 29 -73 29 -42 0 -87 -18 -108 -44 -20 -24 -31 -19 -31 14 0 25
-4 30 -25 30 l-25 0 0 -210z"/>
<path d="M5049 1597 c-53 -35 -79 -97 -79 -188 0 -135 64 -219 168 -219 52 0
91 19 126 61 21 24 24 34 15 45 -17 21 -27 17 -60 -21 -26 -30 -38 -35 -73
-35 -23 0 -52 7 -65 16 -28 20 -51 72 -51 114 l0 30 126 0 126 0 -4 53 c-6 67
-33 125 -72 148 -44 27 -114 25 -157 -4z m139 -51 c12 -12 25 -39 29 -59 l6
-37 -97 0 c-94 0 -96 0 -96 24 0 12 10 38 23 57 35 53 89 59 135 15z"/>
<path d="M460 605 l0 -295 30 0 30 0 0 272 c0 149 3 269 6 266 3 -3 32 -102
65 -219 33 -118 66 -238 75 -267 11 -39 19 -52 34 -52 21 0 19 -6 107 325 l58
220 3 -272 2 -273 30 0 30 0 0 295 0 295 -53 0 -52 0 -60 -225 c-33 -124 -62
-225 -65 -225 -3 0 -32 100 -66 223 l-60 222 -57 3 -57 3 0 -296z"/>
<path d="M1450 605 l0 -295 25 0 25 0 0 295 0 295 -25 0 -25 0 0 -295z"/>
<path d="M1620 605 l0 -295 25 0 25 0 0 295 0 295 -25 0 -25 0 0 -295z"/>
<path d="M2830 793 l0 -106 -26 24 c-21 19 -36 24 -81 24 -51 0 -57 -3 -93
-41 -44 -47 -60 -94 -60 -174 0 -75 15 -124 51 -165 54 -61 127 -69 180 -19
l26 25 7 -25 c5 -19 13 -26 31 -26 l25 0 0 295 0 295 -30 0 -30 0 0 -107z
m-31 -129 l31 -26 0 -113 0 -113 -31 -26 c-81 -68 -157 -27 -173 93 -21 156
80 263 173 185z"/>
<path d="M3380 605 l0 -295 30 0 30 0 0 295 0 295 -30 0 -30 0 0 -295z"/>
<path d="M3724 885 c3 -8 42 -141 87 -295 77 -260 84 -280 105 -280 13 0 26 4
29 10 3 5 43 137 89 292 l84 283 -25 3 c-14 2 -29 -2 -34 -9 -11 -18 -129
-440 -130 -464 l0 -20 -9 20 c-5 11 -37 122 -71 248 l-63 227 -34 0 c-26 0
-33 -3 -28 -15z"/>
<path d="M4540 604 l0 -295 28 3 27 3 3 293 2 292 -30 0 -30 0 0 -296z"/>
<path d="M4710 604 l0 -295 28 3 27 3 3 293 2 292 -30 0 -30 0 0 -296z"/>
<path d="M2170 800 l0 -70 -36 0 c-31 0 -35 -3 -32 -22 2 -18 11 -24 36 -26
l32 -3 0 -165 c0 -162 0 -165 25 -189 26 -27 72 -33 106 -15 31 17 24 40 -14
40 -54 0 -57 9 -57 176 l0 153 43 3 c34 2 42 7 42 23 0 16 -8 21 -42 23 l-43
3 0 70 0 69 -30 0 -30 0 0 -70z"/>
<path d="M1140 729 c-43 -18 -80 -61 -95 -113 -60 -201 69 -371 222 -295 69
35 93 86 93 199 0 96 -23 158 -72 193 -31 23 -112 32 -148 16z m118 -64 c68
-57 69 -220 2 -287 -50 -50 -125 -29 -154 42 -18 46 -21 137 -6 192 21 75 101
101 158 53z"/>
<path d="M1854 721 c-70 -43 -99 -114 -92 -222 7 -90 38 -147 98 -176 24 -13
56 -23 70 -23 37 0 110 40 134 73 21 28 21 29 2 43 -17 12 -22 10 -51 -24 -29
-32 -38 -37 -78 -37 -66 0 -117 56 -117 129 l0 25 128 3 127 3 -3 50 c-4 69
-39 136 -82 157 -45 23 -97 23 -136 -1z m130 -62 c17 -20 26 -43 26 -65 l0
-34 -95 0 c-105 0 -107 2 -81 64 30 71 105 89 150 35z"/>
<path d="M3075 726 c-62 -27 -97 -97 -99 -196 -2 -120 55 -210 143 -225 56 -9
103 9 146 57 36 39 36 40 17 54 -18 12 -24 10 -60 -26 -77 -77 -160 -38 -187
88 l-7 32 133 0 132 0 -6 55 c-14 137 -107 207 -212 161z m107 -47 c21 -11 48
-66 48 -99 0 -19 -6 -20 -94 -20 -52 0 -97 3 -99 8 -9 13 22 87 44 105 24 19
70 22 101 6z"/>
<path d="M4215 726 c-16 -7 -41 -26 -55 -41 -24 -26 -25 -27 -6 -41 23 -17 36
-18 36 -4 0 18 64 50 102 50 41 0 78 -35 78 -75 0 -18 -9 -24 -54 -34 -78 -17
-154 -58 -171 -92 -22 -41 -19 -111 5 -141 44 -57 124 -60 184 -8 l34 30 6
-30 c4 -25 10 -30 33 -30 l28 0 -3 167 c-4 179 -9 203 -54 236 -34 26 -122 33
-163 13z m150 -293 c-7 -29 -80 -83 -112 -83 -31 0 -73 42 -73 74 0 40 39 74
115 100 l70 23 3 -45 c2 -25 1 -56 -3 -69z"/>
<path d="M4960 729 c-82 -33 -126 -151 -100 -273 29 -143 171 -199 272 -108
41 37 46 53 24 71 -10 9 -22 3 -54 -29 -44 -44 -73 -50 -122 -25 -33 17 -55
53 -65 108 l-7 37 132 0 133 0 -7 56 c-16 134 -104 204 -206 163z m99 -49 c19
-9 51 -77 51 -105 0 -12 -18 -15 -100 -15 -55 0 -100 3 -100 8 0 30 25 85 47
102 27 21 73 26 102 10z"/>
<path d="M5303 720 c-38 -23 -53 -48 -53 -90 0 -25 24 -90 33 -90 13 0 156
-65 169 -77 27 -24 23 -68 -9 -93 -38 -30 -94 -22 -137 19 -30 29 -32 30 -54
12 l-24 -17 36 -32 c34 -30 90 -52 131 -52 66 1 135 64 135 125 0 63 -33 94
-145 136 -32 12 -62 31 -72 45 -15 24 -15 27 4 52 29 39 89 42 131 7 28 -24
34 -25 52 -12 19 13 19 14 -8 39 -15 14 -37 31 -49 37 -34 17 -104 13 -140 -9z"/>
</g>
</svg>
