<?xml version="1.0" standalone="no"?>
<!DOCTYPE svg PUBLIC "-//W3C//DTD SVG 20010904//EN"
 "http://www.w3.org/TR/2001/REC-SVG-20010904/DTD/svg10.dtd">
<svg version="1.0" xmlns="http://www.w3.org/2000/svg"
 width="800.000000pt" height="800.000000pt" viewBox="0 0 800.000000 800.000000"
 preserveAspectRatio="xMidYMid meet">
<metadata>
Created by potrace 1.16, written by Peter Selinger 2001-2019
</metadata>
<g transform="translate(0.000000,800.000000) scale(0.100000,-0.100000)"
fill="#000000" stroke="none">
<path d="M3314 6820 c21 -11 44 -24 50 -30 7 -5 16 -6 20 -2 4 4 6 3 5 -3 -2
-5 19 -47 46 -93 28 -46 57 -96 65 -111 72 -131 115 -199 123 -194 6 3 7 1 3
-5 -9 -14 78 -164 89 -154 5 4 5 2 2 -4 -4 -7 18 -54 48 -105 30 -51 55 -97
55 -102 0 -4 6 -5 13 -1 6 4 9 4 5 -1 -8 -9 18 -65 31 -65 4 0 8 -6 8 -12 0
-7 26 -58 58 -113 32 -55 72 -123 89 -152 16 -29 34 -49 39 -46 6 3 7 1 3 -5
-9 -15 24 -73 37 -65 6 3 7 1 3 -5 -7 -12 114 -233 125 -227 3 2 6 -1 7 -8 0
-7 3 -21 7 -32 5 -16 -4 -25 -47 -49 -76 -41 -152 -89 -156 -98 -2 -5 -7 -6
-12 -3 -4 2 -20 -8 -36 -23 -15 -15 -24 -20 -20 -12 4 8 0 6 -8 -4 -9 -11 -16
-16 -16 -12 0 8 -72 -31 -115 -61 l-20 -14 20 2 c11 1 27 0 35 -3 8 -3 80 -16
160 -27 80 -12 187 -29 239 -37 51 -9 102 -14 112 -11 10 3 19 1 19 -4 0 -5
10 -9 21 -9 12 0 92 -11 178 -25 86 -13 262 -41 391 -60 129 -20 259 -39 287
-44 46 -7 53 -6 58 10 4 11 4 23 0 28 -3 6 2 14 11 19 9 5 17 20 17 35 1 14 4
23 6 21 8 -8 52 110 46 124 -2 7 -1 11 4 8 11 -7 33 52 25 65 -3 5 -1 9 4 9 8
0 65 137 67 160 0 3 6 14 12 25 6 11 25 58 43 105 17 47 38 99 45 115 18 41
87 224 89 238 1 7 8 22 14 35 28 49 103 256 98 268 -3 8 1 17 8 21 20 12 68
133 50 126 -8 -3 -14 -9 -14 -14 0 -5 -3 -8 -7 -7 -16 5 -163 -84 -157 -94 4
-7 2 -8 -5 -4 -9 6 -163 -73 -181 -94 -21 -24 -99 -33 -85 -10 3 5 -2 15 -10
23 -8 9 -15 19 -15 24 -1 20 -240 418 -250 415 -6 -1 -8 2 -5 8 8 13 -142 280
-157 280 -5 0 -7 4 -4 9 9 13 -64 73 -81 67 -8 -3 -11 -2 -8 4 16 26 -94 30
-845 30 -772 -1 -775 -1 -736 -20z"/>
<path d="M3087 6726 c-63 -23 -105 -64 -149 -144 -24 -42 -42 -80 -40 -84 1
-5 -2 -8 -7 -8 -14 0 -62 -91 -54 -103 3 -5 2 -7 -4 -4 -5 3 -20 -13 -32 -36
-12 -23 -47 -84 -77 -136 -29 -51 -51 -98 -47 -104 3 -5 2 -7 -4 -4 -10 6
-111 -159 -105 -170 2 -3 -1 -9 -6 -12 -6 -3 -26 -33 -45 -66 -18 -33 -64
-111 -100 -174 -37 -62 -64 -118 -60 -125 3 -6 2 -8 -2 -4 -11 11 -54 -63 -47
-81 3 -8 1 -12 -5 -8 -8 5 -53 -65 -141 -223 -10 -19 -30 -52 -42 -73 -26 -43
-26 -43 50 -83 30 -16 57 -32 60 -35 13 -15 72 -39 82 -33 6 4 8 3 5 -4 -4 -6
51 -44 135 -92 79 -46 175 -101 213 -124 98 -57 117 -67 110 -56 -3 6 1 7 9 4
9 -3 13 -10 11 -15 -6 -9 89 -61 99 -54 3 3 4 2 1 -1 -7 -11 265 -165 277
-158 6 4 8 3 5 -3 -3 -5 15 -20 41 -34 26 -13 51 -28 55 -34 6 -6 10 -6 14 2
2 7 3 14 2 15 -2 2 6 13 16 26 37 42 155 254 148 266 -3 6 -3 8 2 4 8 -8 128
187 130 212 0 9 11 26 23 38 25 25 63 97 57 106 -3 3 -2 4 1 1 4 -2 56 82 117
188 154 270 157 275 157 285 0 16 -132 246 -149 260 -9 7 -16 18 -16 25 0 16
-75 147 -84 147 -4 0 -8 6 -8 13 0 21 -105 197 -114 191 -5 -3 -7 1 -4 8 3 7
-17 49 -44 93 -27 44 -62 104 -76 133 -16 30 -31 49 -37 46 -7 -4 -8 -2 -4 5
9 14 -58 127 -98 164 -17 16 -43 35 -57 42 -41 22 -119 27 -162 11z"/>
<path d="M6047 4837 c-21 -13 -35 -26 -32 -29 4 -3 -2 -5 -12 -4 -10 0 -17 -5
-15 -12 1 -8 -2 -11 -7 -7 -12 7 -71 -21 -71 -34 0 -4 -6 -8 -13 -8 -6 0 -31
-12 -54 -26 -24 -15 -47 -27 -51 -27 -5 0 -20 -10 -34 -22 -14 -13 -31 -24
-39 -26 -8 -2 -17 -9 -21 -15 -4 -7 -8 -9 -8 -5 0 4 -55 -25 -122 -64 -68 -39
-138 -80 -158 -90 -19 -11 -42 -26 -51 -34 -8 -8 -19 -14 -23 -14 -15 0 -186
-102 -186 -111 0 -5 -3 -8 -7 -8 -17 3 -32 -2 -45 -13 -7 -7 -35 -24 -62 -38
-26 -14 -50 -31 -53 -37 -3 -7 -9 -10 -14 -7 -5 3 -9 0 -9 -6 0 -6 -4 -9 -9
-6 -4 3 -16 -1 -26 -8 -17 -12 -15 -19 35 -104 29 -52 57 -89 63 -85 5 3 7 1
3 -5 -3 -6 -2 -13 4 -17 6 -4 7 -11 4 -17 -4 -7 -2 -8 4 -4 11 7 45 -45 40
-61 -2 -7 40 -87 108 -204 6 -10 14 -16 19 -11 5 4 5 2 1 -5 -8 -15 47 -107
58 -96 4 4 4 -1 0 -11 -6 -15 -4 -17 6 -11 8 5 11 4 6 -3 -8 -13 28 -75 37
-65 4 3 7 -3 7 -15 0 -11 7 -27 15 -36 9 -8 16 -19 16 -23 0 -14 93 -174 114
-197 11 -11 19 -25 17 -29 -5 -15 19 -48 30 -41 7 4 8 3 4 -4 -9 -15 24 -73
37 -65 6 3 7 1 4 -5 -4 -5 -4 -17 -1 -26 5 -14 72 -16 638 -16 l631 0 54 31
c29 17 56 39 58 50 3 10 9 19 13 19 6 0 30 44 30 56 0 3 -6 2 -12 -1 -7 -4 -5
0 5 8 11 9 17 28 17 55 0 42 -26 122 -39 122 -4 0 -8 6 -8 13 0 6 -33 68 -74
137 -40 69 -98 170 -130 225 -32 55 -64 108 -73 118 -9 9 -16 21 -16 26 0 13
-132 241 -139 241 -4 0 -8 6 -8 13 0 12 -89 167 -102 177 -3 3 -7 11 -8 17 -3
13 -178 320 -194 339 -5 7 -20 31 -33 55 -46 88 -70 129 -75 129 -3 0 -23 -10
-44 -23z m-722 -851 c38 -16 53 -52 37 -83 -6 -10 -26 -33 -45 -52 -28 -26
-41 -32 -60 -27 -20 5 -23 10 -19 33 2 16 11 36 20 46 20 23 1 22 -26 -2 -25
-21 -27 -39 -11 -75 12 -25 35 -36 80 -36 33 0 53 -22 44 -49 -8 -27 -22 -30
-89 -19 -62 9 -77 20 -102 75 -27 61 -11 134 36 171 46 35 81 40 135 18z"/>
<path d="M5213 3967 c-48 -24 -70 -138 -37 -186 22 -31 65 -47 113 -43 44 4
59 31 19 33 -13 0 -34 3 -47 5 -95 17 -84 163 12 164 15 0 27 -2 27 -5 0 -16
-26 -55 -37 -55 -7 0 -13 -9 -13 -20 0 -31 20 -24 66 21 46 46 47 62 3 84 -32
17 -74 18 -106 2z"/>
<path d="M2280 4479 c-135 -21 -274 -43 -310 -48 -36 -5 -141 -21 -235 -36
-93 -14 -207 -31 -252 -37 -46 -6 -83 -15 -83 -20 0 -6 -7 -7 -15 -4 -15 5
-344 -40 -353 -49 -2 -2 9 -10 26 -19 16 -8 32 -12 36 -9 3 4 6 1 6 -5 0 -6
53 -41 118 -78 195 -111 237 -136 240 -139 4 -4 -62 -127 -92 -169 -13 -20
-15 -27 -5 -22 9 5 9 3 -2 -6 -21 -17 -50 -74 -42 -82 4 -3 1 -6 -5 -6 -11 0
-54 -68 -52 -83 0 -4 -6 -14 -13 -22 -30 -29 -218 -366 -211 -377 4 -6 3 -8
-4 -4 -18 11 -45 -78 -40 -133 5 -54 50 -148 68 -143 6 1 9 -2 5 -8 -6 -10 24
-70 35 -70 4 0 7 -6 7 -12 0 -16 141 -261 155 -269 5 -3 10 -10 10 -15 0 -15
32 -64 41 -64 4 0 6 -4 3 -9 -4 -5 16 -46 44 -91 27 -45 50 -83 50 -86 0 -15
58 -93 65 -87 4 5 5 2 1 -4 -7 -12 98 -207 130 -244 8 -8 14 -21 14 -28 0 -7
5 -9 12 -5 7 4 8 3 4 -4 -9 -15 18 -55 29 -44 5 4 5 1 1 -6 -5 -8 2 -28 16
-50 14 -20 27 -45 31 -54 4 -11 13 -16 24 -12 13 4 14 3 5 -3 -15 -11 -5 -46
11 -36 6 3 7 1 3 -5 -4 -7 -1 -21 7 -33 14 -19 15 -17 20 33 7 79 10 90 30
110 10 10 15 23 12 28 -3 4 -1 10 3 12 15 6 102 159 97 169 -4 5 1 12 10 15 9
4 14 13 11 20 -3 7 0 16 6 20 7 4 8 3 4 -4 -4 -7 -5 -12 -2 -12 8 0 69 112 69
127 0 7 3 11 5 8 3 -3 26 32 52 78 25 45 81 142 123 215 43 73 74 139 71 145
-4 7 -4 9 1 5 5 -5 38 43 75 105 50 82 65 115 57 125 -7 9 -6 11 7 6 12 -5 15
-2 10 10 -4 11 -1 16 10 16 14 0 21 13 14 23 -2 2 5 11 14 20 9 9 36 52 60 95
24 42 47 84 53 94 5 9 21 37 34 63 39 72 41 73 125 25 41 -24 77 -42 80 -41 3
0 15 -8 26 -19 12 -12 25 -18 30 -15 6 4 10 2 10 -2 0 -11 115 -74 123 -68 4
3 5 2 2 -2 -6 -8 74 -57 81 -50 3 3 0 16 -7 29 -7 12 -14 25 -14 28 -4 26 -29
80 -36 80 -6 0 -8 4 -4 9 3 5 -12 54 -34 108 -78 194 -131 334 -131 343 0 6
-11 15 -25 20 -26 10 -28 15 -25 69 1 19 -7 55 -18 80 -11 25 -25 57 -30 71
-9 21 -11 14 -11 -43 -1 -77 -20 -127 -60 -158 -33 -27 -119 -23 -152 7 -50
45 -62 123 -28 184 35 61 125 90 143 45 7 -19 -3 -45 -17 -45 -23 0 -77 -46
-77 -65 0 -57 67 -86 103 -45 14 17 17 42 17 150 0 72 4 131 10 135 5 3 -1 29
-16 63 -14 31 -41 98 -59 147 -63 173 -76 205 -83 204 -4 -1 -117 -19 -252
-40z"/>
<path d="M2700 4075 c-1 -11 -3 -70 -5 -132 -4 -123 -13 -150 -53 -159 -15 -3
-32 -7 -39 -9 -15 -5 -51 39 -59 72 -8 31 18 70 62 90 54 26 28 56 -29 34 -34
-13 -67 -66 -67 -108 0 -77 40 -122 111 -123 38 0 50 5 75 31 28 30 29 33 31
150 2 77 -1 119 -8 119 -5 0 -8 3 -6 8 3 4 1 16 -4 27 l-8 20 -1 -20z"/>
<path d="M5078 3354 c-32 -39 -58 -77 -58 -83 0 -6 -4 -11 -9 -11 -9 0 -151
-172 -151 -182 0 -3 -16 -22 -35 -42 -19 -21 -33 -42 -29 -47 3 -5 1 -8 -4 -7
-9 3 -572 -693 -572 -707 0 -4 -9 -14 -21 -24 l-20 -16 28 -36 c76 -95 107
-128 116 -122 6 3 7 1 3 -6 -7 -10 37 -68 206 -276 5 -5 35 -44 69 -85 33 -41
65 -74 70 -72 6 1 8 -2 5 -7 -8 -13 104 -152 117 -144 5 3 7 1 3 -5 -7 -12
182 -255 193 -248 4 3 8 -1 8 -9 0 -7 31 -52 69 -99 l69 -86 3 255 2 255 472
0 c457 0 473 1 515 21 23 11 56 37 71 57 34 43 118 193 114 205 -1 4 2 7 7 7
13 0 112 180 105 192 -4 6 -3 8 2 5 12 -7 70 92 66 112 -2 7 1 10 7 7 12 -8
43 53 34 67 -3 5 -2 7 4 4 7 -5 235 373 252 417 2 6 12 23 22 37 10 14 16 29
12 33 -3 3 -2 6 4 6 8 0 35 43 37 60 1 3 10 19 22 35 42 60 93 155 84 155 -6
0 -10 -4 -10 -9 0 -5 -21 -16 -47 -25 -41 -14 -146 -16 -910 -16 l-863 0 -2
253 -3 254 -57 -73z"/>
<path d="M2495 2856 c-21 -35 -37 -65 -34 -68 2 -2 -5 -13 -16 -25 -11 -12
-29 -39 -40 -60 -11 -21 -28 -50 -38 -65 -11 -15 -16 -31 -12 -39 5 -7 4 -10
-2 -6 -11 7 -48 -61 -44 -82 1 -7 -2 -10 -7 -7 -5 3 -31 -34 -58 -81 -27 -48
-62 -110 -79 -138 -139 -239 -175 -304 -175 -314 0 -6 -4 -11 -9 -11 -10 0
-27 -39 -23 -53 1 -5 -1 -6 -6 -3 -18 11 -47 -77 -46 -139 1 -67 18 -107 65
-154 64 -64 14 -61 995 -61 l894 0 0 685 0 685 -663 0 -663 0 -39 -64z"/>
</g>
</svg>
